<svg width="33" height="39" viewBox="0 0 33 39" fill="none" xmlns="http://www.w3.org/2000/svg">
<g id="Frame">
<g id="Group">
<path id="Vector" d="M17.2518 14.0541C18.3556 14.0548 19.4348 13.7297 20.3529 13.12C21.271 12.5103 21.9867 11.6433 22.4094 10.6288C22.8321 9.61435 22.9429 8.4979 22.7277 7.42074C22.5126 6.34359 21.9811 5.35414 21.2006 4.57758C20.4201 3.80102 19.4256 3.27224 18.3429 3.05816C17.2603 2.84407 16.1382 2.9543 15.1185 3.37489C14.0988 3.79547 13.2275 4.50752 12.6147 5.42095C12.0018 6.33437 11.6751 7.40812 11.6758 8.50634C11.6785 9.97686 12.2669 11.3864 13.312 12.4262C14.3571 13.466 15.7738 14.0514 17.2518 14.0541ZM23.7306 31.036C23.7322 30.2957 23.4463 29.5834 22.9326 29.0478C22.4189 28.5123 21.7171 28.1949 20.9738 28.1619L20.5849 33.91H20.8419C21.081 33.913 21.3194 33.8828 21.5501 33.8202C22.1738 33.6648 22.7272 33.3062 23.1223 32.8017C23.5174 32.2971 23.7315 31.6756 23.7306 31.036Z" fill="#C13D44"/>
<path id="Vector_2" d="M23.8626 28.0167C24.6661 28.8183 25.118 29.9038 25.1195 31.0359C25.1224 32.0995 24.7233 33.1253 24.0015 33.9099H28.2165V26.5728L27.7027 19.2978C27.3693 18.7354 26.8941 18.2694 26.3241 17.9459C25.7541 17.6223 25.1091 17.4525 24.4529 17.4531H21.6892L21.0642 26.7869C22.1181 26.8371 23.1156 27.2754 23.8626 28.0167ZM19.1963 33.9099L20.2934 17.4531H17.7103L10.3566 33.9099H19.1963ZM4.34307 31.3329C4.593 32.0836 5.07449 32.7367 5.71903 33.1993C6.36357 33.662 7.13834 33.9106 7.93312 33.9099H8.83584L11.4051 28.1583H9.88022C9.69605 28.1583 9.51943 28.0855 9.3892 27.956C9.25898 27.8264 9.18582 27.6507 9.18582 27.4675C9.18582 27.2842 9.25898 27.1085 9.3892 26.9789C9.51943 26.8494 9.69605 26.7766 9.88022 26.7766H12.0217V26.7731L16.1881 17.4531H10.058C9.37641 17.4513 8.7071 17.6335 8.12136 17.9802C7.53562 18.327 7.05539 18.8253 6.73181 19.4221L3.5584 25.2048C3.31131 25.659 3.15986 26.1585 3.1133 26.6728C3.06674 27.1872 3.12604 27.7056 3.28759 28.1963L4.34307 31.3329Z" fill="#C13D44"/>
</g>
</g>
</svg>
