<svg width="38" height="39" viewBox="0 0 38 39" fill="none" xmlns="http://www.w3.org/2000/svg">
<g id="Frame">
<g id="Group">
<path id="Vector" d="M27.0538 21.8469C26.5064 18.4402 26.3021 16.9134 24.2285 14.7957C22.8159 13.3301 22.6334 11.9057 22.6099 11.4702C23.0572 10.6344 23.0631 9.14529 23.016 8.26242C25.484 7.97872 25.4934 4.30832 23.7694 3.17706C22.7158 2.45311 21.6917 2.94752 21.0501 3.5361C20.3791 3.01815 19.0195 2.39425 16.7711 3.09466C14.0871 3.93045 12.9688 5.95517 13.5397 8.94517C13.8516 10.5697 13.1453 11.6291 13.1159 11.6703C12.8422 12.0399 13.1347 12.615 13.5985 12.6003H14.4579C15.1654 14.6338 16.5074 16.7674 19.0666 14.7839C19.1313 15.967 18.8723 18.4802 15.7469 19.6279C14.4461 20.1047 13.7045 20.8051 13.5338 21.7174C13.3631 22.6591 13.8693 23.542 14.3402 24.1306C16.7139 28.9494 16.7524 30.3771 16.1756 32.1782C16.1756 32.1782 16.1756 32.1782 17.9012 31.5173C19.4609 30.4167 21.6917 29.6633 23.0396 29.2689C23.0925 29.0865 23.5163 27.5091 22.6923 25.8081C21.933 24.2424 21.933 21.7351 21.933 21.6291C21.933 21.3054 22.1979 21.0464 22.5216 21.0464C22.8512 21.0464 23.1102 21.3113 23.1102 21.635C23.1102 21.6586 23.1102 23.9776 23.7518 25.296C24.464 26.7675 24.4286 28.1389 24.3109 28.9452C25.0031 28.9134 25.1673 29.9423 24.4698 30.1047C24.4286 30.1165 20.7205 30.9758 18.578 32.4826C17.3461 33.3472 15.7528 33.7926 15.7528 33.7926L15.6376 34.8689C15.6376 34.8689 15.6376 34.8689 15.7528 35.7492C21.7211 35.7492 27.5835 30.9935 27.8896 30.7404C27.9896 30.658 28.0602 30.5403 28.0897 30.4108C28.4723 28.6804 27.195 22.512 27.0538 21.8469Z" fill="#C13D44"/>
</g>
</g>
</svg>
