<svg width="24" height="38" viewBox="0 0 24 38" fill="none" xmlns="http://www.w3.org/2000/svg">
<g id="Frame">
<g id="Group">
<path id="Vector" d="M18.7911 15.4229C17.8685 18.1396 16.1258 20.5173 13.8025 22.2221C15.3105 22.8765 16.9649 23.237 18.6849 23.237H20.0166V19.6651C20.0166 18.1295 19.5852 16.6707 18.7911 15.4229ZM17.481 13.8571L17.4741 13.8508C16.0987 15.2878 14.17 16.1527 12.0981 16.1527C10.0262 16.1527 8.09751 15.2878 6.72209 13.8508L6.71484 13.8575C7.48924 17.0161 9.47406 19.6577 12.1072 21.3243C14.7966 19.6175 16.7256 16.938 17.481 13.8571Z" fill="#C13D44"/>
<path id="Vector_2" d="M6.48761 7.37039H5.51189C4.76937 7.37039 4.16528 7.97447 4.16528 8.717C4.16528 9.45952 4.76937 10.0636 5.51189 10.0636H6.48761L6.68769 10.6297C7.49643 12.9176 9.67092 14.4547 12.0986 14.4547C14.5263 14.4547 16.7009 12.9176 17.5096 10.6297L17.7097 10.0636H18.6854C19.4279 10.0636 20.032 9.45952 20.032 8.717C20.032 7.97447 19.4279 7.37039 18.6854 7.37039H17.7097L17.5096 6.80434C17.0617 5.53708 16.1942 4.50081 15.0973 3.82784C15.1235 3.98824 15.1378 4.15266 15.1378 4.32042C15.1378 5.99622 13.7744 7.35958 12.0986 7.35958C11.2868 7.35958 10.5236 7.04347 9.94962 6.46939L11.1503 5.26874C11.2746 5.39368 11.4223 5.49272 11.5851 5.56015C11.7479 5.62757 11.9224 5.66204 12.0986 5.66154C12.8382 5.66154 13.4398 5.05989 13.4398 4.32037C13.4398 3.58084 12.8382 2.97925 12.0986 2.97925C9.67092 2.97925 7.49638 4.51643 6.68769 6.80434L6.48761 7.37039ZM12.0986 31.9674C16.1653 31.9674 19.5253 28.8857 19.9672 24.935H18.6854C15.4356 24.935 12.2678 23.7977 9.76544 21.7326C7.74977 20.0692 6.23959 17.8709 5.40577 15.4226C4.61168 16.6704 4.18017 18.1293 4.18017 19.6651V24.0488C4.18017 28.4151 7.73234 31.9674 12.0986 31.9674Z" fill="#C13D44"/>
</g>
</g>
</svg>
