<svg width="39" height="39" viewBox="0 0 39 39" fill="none" xmlns="http://www.w3.org/2000/svg">
<g id="Frame">
<g id="Group">
<path id="Vector" d="M30.5165 13.0052L19.2769 3.78247C18.8798 3.43688 18.3021 3.43688 17.9049 3.77216L6.64986 13.0052C6.29911 13.2941 6.165 13.7583 6.31974 14.1967C6.47448 14.63 6.87166 14.9137 7.33073 14.9137H8.53773V26.1636C8.53773 26.4576 8.78017 26.6949 9.06902 26.6949H11.4263C11.9008 24.3221 13.5411 22.3001 15.8107 21.351V21.0725C15.8107 20.2369 16.4916 19.5509 17.3323 19.5509H18.1215C18.364 18.5502 19.2563 17.7971 20.3292 17.7971H21.3299C21.9953 17.7971 22.542 17.2503 22.542 16.5798C22.542 16.2858 22.7845 16.0175 23.0733 16.0175C23.3622 16.0175 23.6046 16.229 23.6046 16.5282C23.6046 17.8332 22.5833 18.8597 21.3247 18.8597H20.324C19.8495 18.8597 19.4369 19.1434 19.2408 19.5457H19.834C20.6696 19.5457 21.3557 20.2266 21.3557 21.0673V21.3459C23.6304 22.2898 25.2655 24.3118 25.7401 26.6897H28.1025C28.3965 26.6897 28.6338 26.4473 28.6338 26.1584V14.9137H29.8305C30.2947 14.9137 30.6919 14.63 30.8466 14.1916C31.0014 13.7583 30.8673 13.2889 30.5113 13.0052H30.5165ZM21.8251 15.9402C21.7248 16.0393 21.5895 16.095 21.4485 16.095C21.3075 16.095 21.1722 16.0393 21.072 15.9402L20.5046 15.3676C20.2983 15.1613 20.2983 14.8209 20.5046 14.6145C20.7161 14.4082 21.0565 14.4082 21.2628 14.6145L21.8302 15.1871C22.0365 15.3934 22.0365 15.7338 21.8302 15.9402H21.8251ZM23.6149 14.7177C23.6149 15.0117 23.3777 15.249 23.0836 15.249C22.7896 15.249 22.5524 15.0066 22.5524 14.7177V13.4694C22.5524 13.1703 22.7948 12.9381 23.0836 12.9381C23.3725 12.9381 23.6149 13.1754 23.6149 13.4694V14.7177ZM25.6575 15.3676L25.0902 15.9402C24.987 16.0433 24.8477 16.0949 24.7188 16.0949C24.5898 16.0949 24.4454 16.0485 24.3422 15.9402C24.1359 15.7338 24.1359 15.3934 24.3422 15.1871L24.9096 14.6145C25.1159 14.4082 25.4564 14.4082 25.6627 14.6145C25.869 14.8209 25.8742 15.1613 25.6627 15.3676H25.6575Z" fill="#C13D44"/>
<path id="Vector_2" d="M20.6491 22.2228C20.4376 22.1506 20.2932 21.9443 20.2932 21.7225V21.0777C20.2932 20.8249 20.092 20.6238 19.8393 20.6238H17.3324C17.0797 20.6238 16.8785 20.8249 16.8785 21.0777V21.7225C16.8785 21.9443 16.7341 22.1506 16.5226 22.2228C14.4955 22.9449 13.0048 24.6523 12.5147 26.6949C12.3961 27.1694 12.3394 27.6646 12.3394 28.1701C12.3394 31.6415 15.1402 34.4733 18.5858 34.4733C22.0315 34.4733 24.8323 31.6467 24.8323 28.1701C24.8323 27.6698 24.7756 27.1746 24.657 26.6949C24.1669 24.6523 22.6762 22.9449 20.6491 22.2228Z" fill="#C13D44"/>
</g>
</g>
</svg>
