<svg width="38" height="38" viewBox="0 0 38 38" fill="none" xmlns="http://www.w3.org/2000/svg">
<g id="Frame">
<g id="Group">
<path id="Vector" d="M27.1355 21.3814C26.6 18.0488 26.4002 16.5552 24.3717 14.4835C22.9898 13.0498 22.8113 11.6564 22.7883 11.2303C23.2259 10.4127 23.2316 8.95594 23.1856 8.09226C25.5998 7.81473 25.609 4.22412 23.9226 3.11745C22.8919 2.40924 21.89 2.8929 21.2624 3.46869C20.606 2.96199 19.276 2.35166 17.0765 3.03684C14.4509 3.85446 13.3569 5.83517 13.9154 8.76017C14.2205 10.3493 13.5296 11.3858 13.5008 11.4261C13.2331 11.7877 13.5192 12.3502 13.973 12.3358H14.8136C15.5057 14.3252 16.8185 16.4124 19.322 14.472C19.3854 15.6293 19.132 18.0879 16.0746 19.2107C14.8021 19.6771 14.0766 20.3623 13.9096 21.2548C13.7426 22.176 14.2378 23.0397 14.6984 23.6155C12.3262 24.5713 10.8407 25.9474 10.2764 27.7093C9.56243 29.9549 10.5585 32.1659 11.1401 33.1851C11.5126 33.1321 12.0038 33.0336 12.355 32.9605C14.1227 32.592 16.6561 31.9183 18.182 30.8416C19.7078 29.7649 21.89 29.0279 23.2086 28.6421C23.2604 28.4636 23.675 26.9205 22.8689 25.2565C22.1261 23.7249 22.1261 21.272 22.1261 21.1684C22.1261 20.8517 22.3852 20.5984 22.7019 20.5984C23.0243 20.5984 23.2777 20.8575 23.2777 21.1741C23.2777 21.1972 23.2777 23.4658 23.9053 24.7555C24.602 26.195 24.5674 27.5366 24.4523 28.3254C25.1294 28.2943 25.2901 29.3008 24.6078 29.4597C24.5674 29.4712 20.94 30.3119 18.8441 31.7859C17.639 32.6317 15.9329 33.2473 14.376 33.6687C13.5757 33.8818 12.8156 34.0488 12.1823 34.1754C13.449 34.7455 14.7675 34.9815 16.0803 34.9815C21.9188 34.9815 27.6537 30.3292 27.9531 30.0816C28.051 30.001 28.1201 29.8858 28.1488 29.7591C28.5231 28.0663 27.2736 22.0321 27.1355 21.3814Z" fill="#C13D44"/>
</g>
</g>
</svg>
